# xmcd
#
# Track frame offsets: 
#        150
#        17357
#        35953
#        52571
#        71575
#        88862
#        106550
#        124066
#        145786
#        165316
#        183136
#        195335
#        216034
#        233903
#        251195
#
# Disc length: 3597 seconds
#
# Revision: 2
# Processed by: cddbd v1.5.2PL0 Copyright (c) Steve Scherf et al.
# Submitted via: ExactAudioCopy v1.0b3
#
DISCID=bc0e0b0f
DTITLE=Keyshia Cole - Woman To Woman
DYEAR=2012
DGENRE=Soul
TTITLE0=Enough Of No Love feat. Lil Wayne
TTITLE1=Zero feat. Meek Mill
TTITLE2=Missing Me
TTITLE3=Trust And Believe
TTITLE4=Get It Right
TTITLE5=Woman To Woman feat. Ashanti
TTITLE6=Wonderland feat. Elijah Blake
TTITLE7=I Choose You
TTITLE8=Stubborn
TTITLE9=Hey Sexy
TTITLE10=Forever
TTITLE11=Next Move feat. Robin Thicke
TTITLE12=Who's Gonna Hold Me Down
TTITLE13=Why Lie
TTITLE14=Signature
EXTD=YEAR: 2012
EXTT0=
EXTT1=
EXTT2=
EXTT3=
EXTT4=
EXTT5=
EXTT6=
EXTT7=
EXTT8=
EXTT9=
EXTT10=
EXTT11=
EXTT12=
EXTT13=
EXTT14=
PLAYORDER=
